<svg version="1.1" id="Layer_1" xmlns="http://www.w3.org/2000/svg" xmlns:xlink="http://www.w3.org/1999/xlink" x="0px" y="0px"
	 width="100%" viewBox="0 0 512 512" enable-background="new 0 0 512 512" xml:space="preserve">
<path fill="#FFFFFF" opacity="1.000000" stroke="none" 
	d="
M134.000000,513.000000 
	C89.692230,513.000000 45.384460,513.000000 1.038345,513.000000 
	C1.038345,342.457306 1.038345,171.914612 1.038345,1.000000 
	C38.686745,1.000000 76.374718,1.000000 114.452744,1.340028 
	C114.013367,2.491368 112.959221,3.169785 112.388809,4.134289 
	C105.764931,15.334699 98.961021,26.440565 92.743340,37.864582 
	C89.279442,44.228924 85.585922,49.002110 77.386017,47.051624 
	C75.809242,46.676567 74.060570,46.905125 72.401833,47.015263 
	C66.721527,47.392437 63.062538,50.668362 63.032177,55.788136 
	C62.938324,71.614975 62.942387,87.443024 63.031494,103.269913 
	C63.058544,108.074936 66.276764,110.976601 71.105522,110.999435 
	C74.270927,111.014412 77.454773,111.213783 80.596703,110.941795 
	C83.631409,110.679092 84.679283,112.181747 84.995079,114.775848 
	C85.329620,117.523872 85.677902,120.270332 85.993347,123.020554 
	C87.665253,137.597000 89.352264,152.171799 90.979652,166.753220 
	C91.423676,170.731750 91.679596,174.731277 92.045570,178.997757 
	C88.975044,178.997757 86.496918,178.983002 84.019028,179.000687 
	C78.028801,179.043457 75.920364,180.979126 76.045090,186.864731 
	C76.138771,191.285538 76.611404,195.701996 77.009880,200.111832 
	C77.642487,207.112946 78.225357,214.122375 79.062851,221.100235 
	C80.264297,231.110352 81.809189,241.079926 82.960518,251.095200 
	C84.136086,261.321442 84.881203,271.597168 86.058578,281.823181 
	C87.211746,291.839050 88.808235,301.803894 89.959694,311.819916 
	C91.135277,322.045837 91.901848,332.318298 93.035904,342.549530 
	C94.597450,356.637512 96.222961,370.720551 98.048965,384.776123 
	C98.891975,391.265198 100.933990,396.048950 109.203568,395.047699 
	C111.641922,394.752472 114.146271,395.002228 116.833649,395.002228 
	C117.582550,400.241425 118.431137,405.176056 118.968193,410.144409 
	C120.074547,420.379333 120.882950,430.647430 122.060333,440.873505 
	C123.213509,450.889313 124.808578,460.854218 125.959778,470.870209 
	C127.135094,481.096039 127.658386,491.409088 129.185471,501.576050 
	C129.780212,505.535736 132.336945,509.200745 134.000000,513.000000 
z"/>
<path fill="#FFFFFF" opacity="1.000000" stroke="none" 
	d="
M399.000000,0.999994 
	C436.978088,1.000000 474.956177,1.000000 512.967163,1.000000 
	C512.967163,171.546356 512.967163,342.092743 512.967163,513.000000 
	C468.979767,513.000000 424.958527,513.000000 380.576599,512.639404 
	C381.465912,510.540131 383.561279,508.921326 383.827576,507.043152 
	C385.450134,495.600281 386.695953,484.102783 387.987671,472.614563 
	C388.772491,465.634399 389.317017,458.626617 390.142609,451.651764 
	C391.347473,441.472626 392.750610,431.317047 393.989197,421.141693 
	C395.043884,412.477234 395.985535,403.799072 396.991455,395.002228 
	C400.907196,395.002228 404.225037,394.962860 407.541565,395.011993 
	C411.871796,395.076172 414.293335,392.601257 414.928070,388.722107 
	C415.898346,382.792297 416.325104,376.775177 417.048553,370.803101 
	C418.340485,360.138550 419.732697,349.485931 420.983521,338.816681 
	C421.763245,332.165344 422.252045,325.479370 423.064789,318.832581 
	C424.288361,308.825928 425.813965,298.855255 426.965240,288.841003 
	C428.140778,278.615631 428.925995,268.345856 430.053253,258.114349 
	C431.265930,247.107391 432.634644,236.116943 434.017792,225.129684 
	C434.890442,218.197586 436.109253,211.304276 436.813293,204.357147 
	C437.459717,197.978729 437.820343,191.554779 437.927460,185.144547 
	C437.991150,181.335358 435.561554,179.208710 431.759216,179.028656 
	C428.635925,178.880768 425.500000,178.998505 421.969788,178.998505 
	C422.345306,174.412354 422.570709,170.209869 423.054199,166.037292 
	C424.309662,155.201874 425.719635,144.384399 426.986847,133.550278 
	C427.745575,127.063965 428.164062,120.529793 429.193665,114.090401 
	C429.386688,112.883179 431.656342,111.341858 433.129272,111.141251 
	C436.400391,110.695709 439.774017,111.019310 443.105652,110.998116 
	C447.676788,110.969032 450.924927,108.127716 450.957550,103.559547 
	C451.071838,87.567833 451.143280,71.572563 450.889587,55.584061 
	C450.834991,52.142975 449.621887,48.418396 445.084564,47.999466 
	C440.200562,47.548527 435.269104,47.527161 430.413666,46.893925 
	C428.545105,46.650227 426.318787,45.658962 425.161316,44.259243 
	C423.360229,42.081238 422.456299,39.188145 420.956635,36.729584 
	C413.677124,24.795696 406.325867,12.905594 399.000000,0.999994 
z"/>
<path fill="#010101" opacity="1.000000" stroke="none" 
	d="
M398.531372,0.999994 
	C406.325867,12.905594 413.677124,24.795696 420.956635,36.729584 
	C422.456299,39.188145 423.360229,42.081238 425.161316,44.259243 
	C426.318787,45.658962 428.545105,46.650227 430.413666,46.893925 
	C435.269104,47.527161 440.200562,47.548527 445.084564,47.999466 
	C449.621887,48.418396 450.834991,52.142975 450.889587,55.584061 
	C451.143280,71.572563 451.071838,87.567833 450.957550,103.559547 
	C450.924927,108.127716 447.676788,110.969032 443.105652,110.998116 
	C439.774017,111.019310 436.400391,110.695709 433.129272,111.141251 
	C431.656342,111.341858 429.386688,112.883179 429.193665,114.090401 
	C428.164062,120.529793 427.745575,127.063965 426.986847,133.550278 
	C425.719635,144.384399 424.309662,155.201874 423.054199,166.037292 
	C422.570709,170.209869 422.345306,174.412354 421.969788,178.998505 
	C425.500000,178.998505 428.635925,178.880768 431.759216,179.028656 
	C435.561554,179.208710 437.991150,181.335358 437.927460,185.144547 
	C437.820343,191.554779 437.459717,197.978729 436.813293,204.357147 
	C436.109253,211.304276 434.890442,218.197586 434.017792,225.129684 
	C432.634644,236.116943 431.265930,247.107391 430.053253,258.114349 
	C428.925995,268.345856 428.140778,278.615631 426.965240,288.841003 
	C425.813965,298.855255 424.288361,308.825928 423.064789,318.832581 
	C422.252045,325.479370 421.763245,332.165344 420.983521,338.816681 
	C419.732697,349.485931 418.340485,360.138550 417.048553,370.803101 
	C416.325104,376.775177 415.898346,382.792297 414.928070,388.722107 
	C414.293335,392.601257 411.871796,395.076172 407.541565,395.011993 
	C404.225037,394.962860 400.907196,395.002228 396.991455,395.002228 
	C395.985535,403.799072 395.043884,412.477234 393.989197,421.141693 
	C392.750610,431.317047 391.347473,441.472626 390.142609,451.651764 
	C389.317017,458.626617 388.772491,465.634399 387.987671,472.614563 
	C386.695953,484.102783 385.450134,495.600281 383.827576,507.043152 
	C383.561279,508.921326 381.465912,510.540131 380.107910,512.639404 
	C323.645782,513.000000 267.291534,513.000000 210.369995,512.648193 
	C208.484650,510.205566 207.166611,508.114777 205.958130,505.667542 
	C207.033234,499.981934 210.322220,497.881958 215.614380,497.925049 
	C229.931763,498.041595 244.250763,497.983704 258.569061,497.960327 
	C286.035828,497.915497 313.502533,497.846710 341.434021,497.866699 
	C350.982758,497.945526 360.066772,497.945526 369.381165,497.945526 
	C373.368896,463.265198 377.287628,429.184998 381.213745,395.040497 
	C371.261169,395.040497 362.127045,395.040497 352.535583,394.932190 
	C279.057129,394.823883 206.036072,394.823883 132.730942,394.823883 
	C136.763016,429.617004 140.716766,463.734314 144.683685,497.965302 
	C157.353485,497.965302 169.334290,497.939911 181.314911,497.975433 
	C187.874420,497.994904 189.821701,499.631348 191.104553,506.406799 
	C189.677765,508.855530 188.338882,510.927765 187.000000,513.000000 
	C169.645767,513.000000 152.291550,513.000000 134.468658,513.000000 
	C132.336945,509.200745 129.780212,505.535736 129.185471,501.576050 
	C127.658386,491.409088 127.135094,481.096039 125.959778,470.870209 
	C124.808578,460.854218 123.213509,450.889313 122.060333,440.873505 
	C120.882950,430.647430 120.074547,420.379333 118.968193,410.144409 
	C118.431137,405.176056 117.582550,400.241425 116.833649,395.002228 
	C114.146271,395.002228 111.641922,394.752472 109.203568,395.047699 
	C100.933990,396.048950 98.891975,391.265198 98.048965,384.776123 
	C96.222961,370.720551 94.597450,356.637512 93.035904,342.549530 
	C91.901848,332.318298 91.135277,322.045837 89.959694,311.819916 
	C88.808235,301.803894 87.211746,291.839050 86.058578,281.823181 
	C84.881203,271.597168 84.136086,261.321442 82.960518,251.095200 
	C81.809189,241.079926 80.264297,231.110352 79.062851,221.100235 
	C78.225357,214.122375 77.642487,207.112946 77.009880,200.111832 
	C76.611404,195.701996 76.138771,191.285538 76.045090,186.864731 
	C75.920364,180.979126 78.028801,179.043457 84.019028,179.000687 
	C86.496918,178.983002 88.975044,178.997757 92.045570,178.997757 
	C91.679596,174.731277 91.423676,170.731750 90.979652,166.753220 
	C89.352264,152.171799 87.665253,137.597000 85.993347,123.020554 
	C85.677902,120.270332 85.329620,117.523872 84.995079,114.775848 
	C84.679283,112.181747 83.631409,110.679092 80.596703,110.941795 
	C77.454773,111.213783 74.270927,111.014412 71.105522,110.999435 
	C66.276764,110.976601 63.058544,108.074936 63.031494,103.269913 
	C62.942387,87.443024 62.938324,71.614975 63.032177,55.788136 
	C63.062538,50.668362 66.721527,47.392437 72.401833,47.015263 
	C74.060570,46.905125 75.809242,46.676567 77.386017,47.051624 
	C85.585922,49.002110 89.279442,44.228924 92.743340,37.864582 
	C98.961021,26.440565 105.764931,15.334699 112.388809,4.134289 
	C112.959221,3.169785 114.013367,2.491368 114.921402,1.340028 
	C209.354233,1.000000 303.708466,1.000000 398.531372,0.999994 
M354.023468,16.057308 
	C281.600739,16.040207 209.176773,16.219610 136.756744,15.768803 
	C127.207527,15.709359 120.446945,17.327145 117.350235,26.961241 
	C117.253670,27.261658 116.941978,27.486042 116.773514,27.771238 
	C112.927528,34.282280 109.087532,40.796856 104.843254,47.994484 
	C115.847267,47.994484 125.811455,47.981850 135.775589,47.998852 
	C142.611664,48.010521 143.829697,48.981552 145.310806,56.354176 
	C144.344345,61.319843 141.106308,63.049412 136.315262,63.029221 
	C118.995285,62.956219 101.674805,62.993176 84.354538,63.013222 
	C82.608803,63.015244 80.863266,63.183815 79.288055,63.266182 
	C79.288055,74.487503 79.288055,85.039803 79.288055,95.970055 
	C81.708382,95.970055 83.683769,95.970055 85.659149,95.970055 
	C187.915451,95.970055 290.171753,95.970695 392.428040,95.964882 
	C394.258514,95.964775 396.089020,95.887451 398.867004,95.946327 
	C410.787109,95.946327 422.707245,95.946327 434.689148,95.946327 
	C434.689148,84.617142 434.689148,74.061691 434.689148,63.114124 
	C422.183502,63.114124 410.060669,63.114124 397.011414,63.036030 
	C322.405914,63.024418 247.800430,63.012829 173.194946,63.001034 
	C171.862701,63.000824 170.527512,63.055359 169.198761,62.986366 
	C164.720901,62.753864 161.567184,60.871502 160.921249,55.307983 
	C161.984528,49.753384 164.167038,48.001534 170.183289,47.998993 
	C237.444992,47.970589 304.706696,47.951649 372.910858,47.981606 
	C384.647675,47.981606 396.384491,47.981606 408.102539,47.981606 
	C408.151855,47.275658 408.309570,46.878525 408.176849,46.650078 
	C402.528656,36.926182 396.915955,27.180105 391.086853,17.565306 
	C390.517090,16.625553 388.598389,16.081125 387.300690,16.071749 
	C376.518646,15.993852 365.735382,16.084953 354.023468,16.057308 
M384.054535,110.986824 
	C289.425446,110.986824 194.796341,110.986824 99.937210,110.986824 
	C102.592697,133.900482 105.193848,156.345337 107.829376,179.086761 
	C110.031830,179.086761 111.845848,179.086761 113.659866,179.086761 
	C185.491714,179.086853 257.323578,179.084930 329.155426,179.089905 
	C336.869202,179.090439 338.789581,180.446930 340.084015,187.605469 
	C338.900146,193.621521 334.486267,194.149994 329.461578,194.146988 
	C252.314392,194.100647 175.167145,194.114853 98.019905,194.114990 
	C96.091042,194.114990 94.162170,194.114990 91.901031,194.114990 
	C99.088280,256.267517 106.195816,317.730682 113.363457,379.713654 
	C115.438148,379.713654 117.231934,379.713654 119.025719,379.713654 
	C201.504944,379.713654 283.984192,379.715546 366.463409,379.701355 
	C368.285614,379.701050 370.107788,379.517609 372.846436,379.670563 
	C382.094604,379.670563 391.342804,379.670563 400.670776,379.670563 
	C407.856201,317.492035 414.961426,256.007202 422.093201,194.292953 
	C411.877106,194.292953 402.421509,194.292953 392.044220,194.143768 
	C383.271179,194.134155 374.491669,193.916656 365.727478,194.190063 
	C360.143433,194.364243 356.445435,192.513351 355.315430,186.248077 
	C356.381256,180.902725 359.924164,179.002594 365.045258,179.062759 
	C369.356171,179.113434 373.669586,178.953537 378.906708,179.065170 
	C387.872040,179.065170 396.837372,179.065170 406.185730,179.065170 
	C408.817749,156.265305 411.414062,133.775116 414.028320,111.129227 
	C403.910858,111.129227 394.445251,111.129227 384.054535,110.986824 
z"/>
<path fill="#FFFFFF" opacity="1.000000" stroke="none" 
	d="
M187.468628,513.000000 
	C188.338882,510.927765 189.677765,508.855530 191.557648,506.401917 
	C196.681961,506.021637 201.265259,506.022797 205.848572,506.023956 
	C207.166611,508.114777 208.484650,510.205566 209.901337,512.648193 
	C202.645752,513.000000 195.291504,513.000000 187.468628,513.000000 
z"/>
<path fill="#FE9017" opacity="1.000000" stroke="none" 
	d="
M355.064117,186.898621 
	C356.445435,192.513351 360.143433,194.364243 365.727478,194.190063 
	C374.491669,193.916656 383.271179,194.134155 392.511719,194.652817 
	C392.328796,201.575287 391.699219,207.990891 391.023804,214.401688 
	C389.343292,230.352554 387.780731,246.317459 385.914886,262.246765 
	C383.415619,283.584137 380.615509,304.886047 378.056671,326.216644 
	C375.930420,343.940887 373.966064,361.684540 371.929993,379.419617 
	C370.107788,379.517609 368.285614,379.701050 366.463409,379.701355 
	C283.984192,379.715546 201.504944,379.713654 119.025719,379.713654 
	C117.231934,379.713654 115.438148,379.713654 113.363457,379.713654 
	C106.195816,317.730682 99.088280,256.267517 91.901031,194.114990 
	C94.162170,194.114990 96.091042,194.114990 98.019905,194.114990 
	C175.167145,194.114853 252.314392,194.100647 329.461578,194.146988 
	C334.486267,194.149994 338.900146,193.621521 340.657349,187.248199 
	C345.841827,186.893494 350.452972,186.896057 355.064117,186.898621 
M303.316437,307.769928 
	C311.892517,282.462524 308.551819,259.184143 290.837799,238.758453 
	C271.789520,216.794327 237.812057,218.359406 220.425446,241.694092 
	C201.415421,267.207520 201.336487,299.121033 220.220291,324.642975 
	C236.217224,346.263275 265.856750,349.725189 286.344330,332.388489 
	C294.024780,325.889252 299.198273,317.661499 303.316437,307.769928 
z"/>
<path fill="#E0E0E0" opacity="1.000000" stroke="none" 
	d="
M205.958130,505.667542 
	C201.265259,506.022797 196.681961,506.021637 191.645538,506.025391 
	C189.821701,499.631348 187.874420,497.994904 181.314911,497.975433 
	C169.334290,497.939911 157.353485,497.965302 144.683685,497.965302 
	C140.716766,463.734314 136.763016,429.617004 132.730942,394.823883 
	C206.036072,394.823883 279.057129,394.823883 352.479248,395.335999 
	C351.253845,409.130951 349.607513,422.411377 348.007477,435.697357 
	C346.782227,445.871460 345.584045,456.049011 344.431396,466.231567 
	C343.241150,476.746216 342.120422,487.268768 340.969269,497.787842 
	C313.502533,497.846710 286.035828,497.915497 258.569061,497.960327 
	C244.250763,497.983704 229.931763,498.041595 215.614380,497.925049 
	C210.322220,497.881958 207.033234,499.981934 205.958130,505.667542 
z"/>
<path fill="#E0E0E0" opacity="1.000000" stroke="none" 
	d="
M355.189758,186.573349 
	C350.452972,186.896057 345.841827,186.893494 340.786713,186.886047 
	C338.789581,180.446930 336.869202,179.090439 329.155426,179.089905 
	C257.323578,179.084930 185.491714,179.086853 113.659866,179.086761 
	C111.845848,179.086761 110.031830,179.086761 107.829376,179.086761 
	C105.193848,156.345337 102.592697,133.900482 99.937210,110.986824 
	C194.796341,110.986824 289.425446,110.986824 384.529907,111.503250 
	C383.787781,123.488121 382.560699,134.955551 381.355621,146.425293 
	C380.218933,157.244553 379.105499,168.066238 377.981873,178.886841 
	C373.669586,178.953537 369.356171,179.113434 365.045258,179.062759 
	C359.924164,179.002594 356.381256,180.902725 355.189758,186.573349 
z"/>
<path fill="#494949" opacity="1.000000" stroke="none" 
	d="
M397.919495,95.846161 
	C396.089020,95.887451 394.258514,95.964775 392.428040,95.964882 
	C290.171753,95.970695 187.915451,95.970055 85.659149,95.970055 
	C83.683769,95.970055 81.708382,95.970055 79.288055,95.970055 
	C79.288055,85.039803 79.288055,74.487503 79.288055,63.266182 
	C80.863266,63.183815 82.608803,63.015244 84.354538,63.013222 
	C101.674805,62.993176 118.995285,62.956219 136.315262,63.029221 
	C141.106308,63.049412 144.344345,61.319843 146.038666,56.144463 
	C151.448212,55.987217 156.129898,56.039680 160.811600,56.092144 
	C161.567184,60.871502 164.720901,62.753864 169.198761,62.986366 
	C170.527512,63.055359 171.862701,63.000824 173.194946,63.001034 
	C247.800430,63.012829 322.405914,63.024418 397.497070,63.532463 
	C397.961670,74.634651 397.940582,85.240410 397.919495,95.846161 
z"/>
<path fill="#303030" opacity="1.000000" stroke="none" 
	d="
M160.866425,55.700066 
	C156.129898,56.039680 151.448212,55.987217 146.282852,55.884216 
	C143.829697,48.981552 142.611664,48.010521 135.775589,47.998852 
	C125.811455,47.981850 115.847267,47.994484 104.843254,47.994484 
	C109.087532,40.796856 112.927528,34.282280 116.773514,27.771238 
	C116.941978,27.486042 117.253670,27.261658 117.350235,26.961241 
	C120.446945,17.327145 127.207527,15.709359 136.756744,15.768803 
	C209.176773,16.219610 281.600739,16.040207 354.508484,16.449221 
	C356.363342,19.437696 357.697052,22.054075 359.109772,24.627110 
	C363.379547,32.403816 367.679932,40.163715 371.968414,47.930164 
	C304.706696,47.951649 237.444992,47.970589 170.183289,47.998993 
	C164.167038,48.001534 161.984528,49.753384 160.866425,55.700066 
z"/>
<path fill="#E87B0C" opacity="1.000000" stroke="none" 
	d="
M372.388214,379.545105 
	C373.966064,361.684540 375.930420,343.940887 378.056671,326.216644 
	C380.615509,304.886047 383.415619,283.584137 385.914886,262.246765 
	C387.780731,246.317459 389.343292,230.352554 391.023804,214.401688 
	C391.699219,207.990891 392.328796,201.575287 392.972595,194.727417 
	C402.421509,194.292953 411.877106,194.292953 422.093201,194.292953 
	C414.961426,256.007202 407.856201,317.492035 400.670776,379.670563 
	C391.342804,379.670563 382.094604,379.670563 372.388214,379.545105 
z"/>
<path fill="#C6C6C6" opacity="1.000000" stroke="none" 
	d="
M341.434021,497.866699 
	C342.120422,487.268768 343.241150,476.746216 344.431396,466.231567 
	C345.584045,456.049011 346.782227,445.871460 348.007477,435.697357 
	C349.607513,422.411377 351.253845,409.130951 352.936584,395.444336 
	C362.127045,395.040497 371.261169,395.040497 381.213745,395.040497 
	C377.287628,429.184998 373.368896,463.265198 369.381165,497.945526 
	C360.066772,497.945526 350.982758,497.945526 341.434021,497.866699 
z"/>
<path fill="#C5C5C5" opacity="1.000000" stroke="none" 
	d="
M378.444275,178.976013 
	C379.105499,168.066238 380.218933,157.244553 381.355621,146.425293 
	C382.560699,134.955551 383.787781,123.488121 384.992462,111.574448 
	C394.445251,111.129227 403.910858,111.129227 414.028320,111.129227 
	C411.414062,133.775116 408.817749,156.265305 406.185730,179.065170 
	C396.837372,179.065170 387.872040,179.065170 378.444275,178.976013 
z"/>
<path fill="#2F2F2F" opacity="1.000000" stroke="none" 
	d="
M398.393250,95.896240 
	C397.940582,85.240410 397.961670,74.634651 397.960297,63.571510 
	C410.060669,63.114124 422.183502,63.114124 434.689148,63.114124 
	C434.689148,74.061691 434.689148,84.617142 434.689148,95.946327 
	C422.707245,95.946327 410.787109,95.946327 398.393250,95.896240 
z"/>
<path fill="#232323" opacity="1.000000" stroke="none" 
	d="
M372.439636,47.955887 
	C367.679932,40.163715 363.379547,32.403816 359.109772,24.627110 
	C357.697052,22.054075 356.363342,19.437696 354.972992,16.483059 
	C365.735382,16.084953 376.518646,15.993852 387.300690,16.071749 
	C388.598389,16.081125 390.517090,16.625553 391.086853,17.565306 
	C396.915955,27.180105 402.528656,36.926182 408.176849,46.650078 
	C408.309570,46.878525 408.151855,47.275658 408.102539,47.981606 
	C396.384491,47.981606 384.647675,47.981606 372.439636,47.955887 
z"/>
<path fill="#030200" opacity="1.000000" stroke="none" 
	d="
M303.170105,308.126465 
	C299.198273,317.661499 294.024780,325.889252 286.344330,332.388489 
	C265.856750,349.725189 236.217224,346.263275 220.220291,324.642975 
	C201.336487,299.121033 201.415421,267.207520 220.425446,241.694092 
	C237.812057,218.359406 271.789520,216.794327 290.837799,238.758453 
	C308.551819,259.184143 311.892517,282.462524 303.170105,308.126465 
M272.047150,293.809723 
	C275.484497,303.570984 274.204224,313.434387 271.696320,324.608551 
	C274.353516,322.561493 275.861206,321.584381 277.152802,320.376282 
	C289.139984,309.164062 293.346893,295.206573 292.212891,279.086365 
	C291.244904,265.326630 286.317291,253.771561 275.516266,244.919937 
	C267.094940,238.018539 265.437256,238.345901 260.747009,248.738098 
	C256.627441,260.071350 257.833069,270.676727 264.734253,280.698914 
	C267.429291,284.612762 269.577515,288.903168 272.047150,293.809723 
M246.198761,240.841263 
	C241.869980,243.782578 236.641586,245.958420 233.371948,249.800980 
	C220.848877,264.518341 218.604828,281.733948 223.950378,299.834869 
	C227.741074,312.670776 235.383255,322.594452 248.755920,327.050232 
	C251.745178,328.046204 253.448166,327.623962 254.933502,324.487885 
	C260.559296,312.609772 260.955353,301.294006 252.917648,290.188080 
	C244.775726,278.938202 241.380447,266.394318 244.079330,252.554230 
	C244.837112,248.668320 246.038162,244.868851 247.352921,240.901138 
	C247.217102,240.914139 247.081299,240.927124 246.198761,240.841263 
z"/>
<path fill="#7A3C1E" opacity="1.000000" stroke="none" 
	d="
M247.035873,241.029739 
	C246.038162,244.868851 244.837112,248.668320 244.079330,252.554230 
	C241.380447,266.394318 244.775726,278.938202 252.917648,290.188080 
	C260.955353,301.294006 260.559296,312.609772 254.933502,324.487885 
	C253.448166,327.623962 251.745178,328.046204 248.755920,327.050232 
	C235.383255,322.594452 227.741074,312.670776 223.950378,299.834869 
	C218.604828,281.733948 220.848877,264.518341 233.371948,249.800980 
	C236.641586,245.958420 241.869980,243.782578 246.593842,240.913986 
	C246.988922,240.986710 247.035873,241.029739 247.035873,241.029739 
z"/>
<path fill="#5F2D18" opacity="1.000000" stroke="none" 
	d="
M261.090454,248.051559 
	C265.437256,238.345901 267.094940,238.018539 275.516266,244.919937 
	C286.317291,253.771561 291.244904,265.326630 292.212891,279.086365 
	C293.346893,295.206573 289.139984,309.164062 277.152802,320.376282 
	C275.861206,321.584381 274.353516,322.561493 271.696320,324.608551 
	C274.204224,313.434387 275.484497,303.570984 272.311798,293.121704 
	C272.001160,283.622650 272.488220,274.562927 270.503021,266.081879 
	C269.006287,259.687714 264.343842,254.034546 261.090454,248.051559 
z"/>
<path fill="#793C1D" opacity="1.000000" stroke="none" 
	d="
M260.918732,248.394836 
	C264.343842,254.034546 269.006287,259.687714 270.503021,266.081879 
	C272.488220,274.562927 272.001160,283.622650 272.275635,292.727905 
	C269.577515,288.903168 267.429291,284.612762 264.734253,280.698914 
	C257.833069,270.676727 256.627441,260.071350 260.918732,248.394836 
z"/>
<path fill="#7A3C1E" opacity="1.000000" stroke="none" 
	d="
M246.967194,240.963409 
	C247.081299,240.927124 247.217102,240.914139 247.194397,240.965439 
	C247.035873,241.029739 246.988922,240.986710 246.967194,240.963409 
z"/>
</svg>